<svg viewBox="0 0 12694 5126" xmlns="http://www.w3.org/2000/svg" shape-rendering="geometricPrecision" text-rendering="geometricPrecision" image-rendering="optimizeQuality" fill-rule="evenodd" clip-rule="evenodd">
    <g>
        <path fill="#4b4b4d" fill-rule="nonzero" d="M589 4409v-292h208v14H630v98h119v15H630v151h167v14H589z"></path>
        <path fill="#4b4b4d" fill-rule="nonzero" d="m848 4117 175 236v-236h14v292h-14v-1l-178-240v241h-14v-261l-23-31h40z"></path>
        <path d="M1089 4117h103c24 0 45 4 63 12 18 9 34 20 46 33 11 14 20 30 26 47s9 35 9 54c0 18-3 36-9 53-6 18-15 33-27 47s-27 25-45 33c-18 9-39 13-63 13h-103v-292zm40 14v264h61c18 0 33-4 46-12 13-7 24-17 32-30 9-12 15-26 20-42 4-15 6-32 6-48 0-17-2-33-6-48-5-16-11-30-20-43-8-12-19-22-32-29-13-8-28-12-46-12h-61z" fill="#4b4b4d" fill-rule="nonzero"></path>
        <path d="M1645 4110c26 0 50 4 69 13 20 9 36 20 50 34 13 15 22 31 29 49 7 19 10 38 10 57s-3 38-10 56-16 35-29 49c-14 14-30 26-50 35-19 8-43 13-69 13s-49-5-69-13c-20-9-37-21-50-35s-23-31-30-49c-6-18-9-37-9-56s3-38 9-57c7-18 17-34 30-49 13-14 30-25 50-34s43-13 69-13zm0 12c-19 0-36 4-51 12s-27 19-37 32c-9 13-17 28-21 45-5 17-8 34-8 52 0 17 3 34 8 51 4 17 12 32 21 46 10 13 22 24 37 32s32 12 51 12c20 0 37-4 51-12s27-19 36-32c10-14 17-29 22-46s7-34 7-51c0-18-2-35-7-52s-12-32-22-45c-9-13-22-24-36-32s-31-12-51-12z" fill="#4b4b4d" fill-rule="nonzero"></path>
        <path fill="#4b4b4d" fill-rule="nonzero" d="M1847 4409v-292h208v14h-167v98h119v15h-119v165h-41z"></path>
        <path fill="#4b4b4d" fill-rule="nonzero" d="M2191 4117h40v278h168v14h-208v-292z"></path>
        <path fill="#4b4b4d" fill-rule="nonzero" d="M2418 4117h41v292h-41v-292z"></path>
        <path fill="#4b4b4d" fill-rule="nonzero" d="M2510 4409v-292h208v14h-168v98h119v15h-119v165h-40z"></path>
        <path fill="#4b4b4d" fill-rule="nonzero" d="M2738 4409v-292h208v14h-168v98h119v15h-119v151h168v14h-208z"></path>
        <path d="M3081 4117h103c25 0 46 4 64 12 18 9 33 20 45 33 12 14 21 30 27 47s9 35 9 54c0 18-3 36-9 53-6 18-15 33-27 47s-28 25-46 33c-18 9-39 13-63 13h-103v-292zm41 14v264h61c17 0 33-4 46-12 13-7 24-17 32-30 9-12 15-26 20-42 4-15 6-32 6-48 0-17-2-33-6-48-5-16-11-30-20-43-8-12-19-22-32-29-13-8-29-12-46-12h-61z" fill="#4b4b4d" fill-rule="nonzero"></path>
        <path d="M3522 4110c26 0 50 4 69 13 20 9 36 20 50 34 13 15 22 31 29 49 7 19 10 38 10 57s-3 38-10 56-16 35-29 49c-14 14-30 26-50 35-19 8-43 13-69 13s-50-5-69-13c-20-9-37-21-50-35s-23-31-30-49c-6-18-9-37-9-56s3-38 9-57c7-18 17-34 30-49 13-14 30-25 50-34 19-9 43-13 69-13zm0 12c-19 0-36 4-51 12s-27 19-37 32c-9 13-17 28-21 45-5 17-8 34-8 52 0 17 3 34 8 51 4 17 12 32 21 46 10 13 22 24 37 32s32 12 51 12c20 0 36-4 51-12 14-8 27-19 36-32 10-14 17-29 22-46s7-34 7-51c0-18-2-35-7-52s-12-32-22-45c-9-13-22-24-36-32-15-8-31-12-51-12z" fill="#4b4b4d" fill-rule="nonzero"></path>
        <path d="M3723 4304v-187h40v196c0 14 2 26 7 37 5 10 11 19 20 27 8 7 18 13 29 16 11 4 24 6 37 6 11 0 21-3 30-7 10-3 19-9 26-16 8-7 14-16 18-27 5-11 7-23 7-36v-196h14v187c0 17-3 32-8 46-6 14-14 26-24 36s-23 18-37 23-29 8-46 8c-14 0-28-2-42-7-13-5-26-12-36-22-11-9-20-21-26-35s-9-31-9-49z" fill="#4b4b4d" fill-rule="nonzero"></path>
        <path fill="#4b4b4d" fill-rule="nonzero" d="M4000 4117h40v278h168v14h-208v-292z"></path>
        <path d="m4196 4409 106-262-12-30h41l118 292h-40l-34-83h-129l-34 83h-16zm55-97h119l-60-146-59 146z" fill="#4b4b4d" fill-rule="nonzero"></path>
        <path d="m4553 4409 106-262-12-30h40l118 292h-40l-33-83h-130l-33 83h-16zm55-97h118l-59-146-59 146z" fill="#4b4b4d" fill-rule="nonzero"></path>
        <path fill="#4b4b4d" fill-rule="nonzero" d="M4825 4117h40v278h168v14h-208v-292z"></path>
        <path fill="#4b4b4d" fill-rule="nonzero" d="M5053 4117h40v278h168v14h-208v-292z"></path>
        <path fill="#4b4b4d" fill-rule="nonzero" d="M5280 4117h40v292h-40v-292z"></path>
        <path d="m5340 4409 106-262-12-30h41l118 292h-40l-34-83h-130l-33 83h-16zm55-97h118l-59-146-59 146z" fill="#4b4b4d" fill-rule="nonzero"></path>
        <path fill="#4b4b4d" fill-rule="nonzero" d="m5643 4117 176 236v-236h14v292h-14v-1l-179-240v241h-14v-261l-23-31h40z"></path>
        <path d="m6143 4182-12 4c-11-22-26-39-43-49-18-11-36-16-55-16-20 0-37 4-52 12-14 8-27 19-37 32-9 14-17 29-22 46-4 17-7 34-7 52s3 35 7 52c5 17 13 32 22 46 10 13 23 23 37 32 15 8 32 12 52 12 19 0 38-5 55-16 17-10 32-27 43-50l12 5c-6 13-13 24-21 33s-18 17-28 23-20 11-32 13c-11 3-23 4-34 4-26 0-48-4-67-13-20-9-36-21-48-35-13-15-22-31-29-50-6-19-9-38-9-57s3-38 10-57c6-18 16-35 29-49 13-15 29-26 48-35s41-13 67-13c12 0 23 1 34 5 12 3 22 7 32 13s19 14 27 23 15 20 21 33z" fill="#4b4b4d" fill-rule="nonzero"></path>
        <path fill="#4b4b4d" fill-rule="nonzero" d="M6176 4409v-292h208v14h-168v98h119v15h-119v151h168v14h-208z"></path>
        <path d="m6488 4409 106-262-12-30h40l118 292h-40l-33-83h-130l-34 83h-15zm55-97h118l-59-146-59 146z" fill="#4b4b4d" fill-rule="nonzero"></path>
        <path d="M6899 4110c26 0 49 4 69 13s36 20 49 34c13 15 23 31 30 49 7 19 10 38 10 57s-3 38-10 56-17 35-30 49-29 26-49 35c-20 8-43 13-69 13-27 0-50-5-70-13-20-9-36-21-49-35-14-14-23-31-30-49s-10-37-10-56 3-38 10-57c7-18 16-34 30-49 13-14 29-25 49-34s43-13 70-13zm0 12c-20 0-37 4-51 12-15 8-27 19-37 32s-17 28-22 45-7 34-7 52c0 17 2 34 7 51s12 32 22 46c10 13 22 24 37 32 14 8 31 12 51 12 19 0 36-4 51-12 14-8 26-19 36-32 10-14 17-29 22-46s7-34 7-51c0-18-2-35-7-52s-12-32-22-45-22-24-36-32c-15-8-32-12-51-12z" fill="#4b4b4d" fill-rule="nonzero"></path>
        <path fill="#4b4b4d" fill-rule="nonzero" d="M7055 4131v-14h257v14h-108v278h-40v-278h-109z"></path>
        <path fill="#4b4b4d" fill-rule="nonzero" d="M7336 4409v-292h209v14h-168v98h119v15h-119v151h168v14h-209z"></path>
        <path d="m7533 4409 106-262-12-30h40l118 292h-40l-33-83h-130l-34 83h-15zm55-97h118l-59-146-59 146z" fill="#4b4b4d" fill-rule="nonzero"></path>
        <path d="M7939 4117c20 0 38 3 52 10 15 7 26 16 34 27s14 23 16 36 1 26-3 39c-5 12-12 23-22 33s-24 18-40 22l58 125h-16l-56-121c-4 0-8 1-12 1h-104v120h-41v-292h134zm-2 158c15 0 27-3 36-10 10-8 17-16 22-27 4-11 7-22 7-35 0-12-3-24-7-34-5-11-12-20-22-27-9-7-21-11-36-11h-91v144h91z" fill="#4b4b4d" fill-rule="nonzero"></path>
        <path d="M8220 4110c27 0 50 4 69 13 20 9 36 20 50 34 13 15 23 31 29 49 7 19 10 38 10 57s-3 38-10 56c-6 18-16 35-29 49-14 14-30 26-50 35-19 8-42 13-69 13-26 0-49-5-69-13-20-9-37-21-50-35s-23-31-30-49c-6-18-9-37-9-56s3-38 9-57c7-18 17-34 30-49 13-14 30-25 50-34s43-13 69-13zm0 12c-19 0-36 4-51 12s-27 19-37 32c-9 13-17 28-21 45-5 17-8 34-8 52 0 17 3 34 8 51 4 17 12 32 21 46 10 13 22 24 37 32s32 12 51 12c20 0 37-4 51-12s27-19 36-32c10-14 17-29 22-46s7-34 7-51c0-18-2-35-7-52s-12-32-22-45c-9-13-22-24-36-32s-31-12-51-12z" fill="#4b4b4d" fill-rule="nonzero"></path>
        <path d="m8377 4409 106-262-12-30h40l119 292h-41l-33-83h-130l-33 83h-16zm55-97h118l-59-146-59 146z" fill="#4b4b4d" fill-rule="nonzero"></path>
        <path fill="none" stroke="#4b4b4d" stroke-width="5.117" d="M589 4409v-292h208v14H630v98h119v15H630v151h167v14H589z"></path>
        <path fill="none" stroke="#4b4b4d" stroke-width="5.117" d="m848 4117 175 236v-236h14v292h-14v-1l-178-240v241h-14v-261l-23-31h40z"></path>
        <path d="M1089 4117h103c24 0 45 4 63 12 18 9 34 20 46 33 11 14 20 30 26 47s9 35 9 54c0 18-3 36-9 53-6 18-15 33-27 47s-27 25-45 33c-18 9-39 13-63 13h-103v-292zm40 14v264h61c18 0 33-4 46-12 13-7 24-17 32-30 9-12 15-26 20-42 4-15 6-32 6-48 0-17-2-33-6-48-5-16-11-30-20-43-8-12-19-22-32-29-13-8-28-12-46-12h-61z" fill="none" stroke="#4b4b4d" stroke-width="5.117"></path>
        <path d="M1645 4110c26 0 50 4 69 13 20 9 36 20 50 34 13 15 22 31 29 49 7 19 10 38 10 57s-3 38-10 56-16 35-29 49c-14 14-30 26-50 35-19 8-43 13-69 13s-49-5-69-13c-20-9-37-21-50-35s-23-31-30-49c-6-18-9-37-9-56s3-38 9-57c7-18 17-34 30-49 13-14 30-25 50-34s43-13 69-13zm0 12c-19 0-36 4-51 12s-27 19-37 32c-9 13-17 28-21 45-5 17-8 34-8 52 0 17 3 34 8 51 4 17 12 32 21 46 10 13 22 24 37 32s32 12 51 12c20 0 37-4 51-12s27-19 36-32c10-14 17-29 22-46s7-34 7-51c0-18-2-35-7-52s-12-32-22-45c-9-13-22-24-36-32s-31-12-51-12z" fill="none" stroke="#4b4b4d" stroke-width="5.117"></path>
        <path fill="none" stroke="#4b4b4d" stroke-width="5.117" d="M1847 4409v-292h208v14h-167v98h119v15h-119v165h-41z"></path>
        <path fill="none" stroke="#4b4b4d" stroke-width="5.117" d="M2191 4117h40v278h168v14h-208v-292z"></path>
        <path fill="none" stroke="#4b4b4d" stroke-width="5.117" d="M2418 4117h41v292h-41v-292z"></path>
        <path fill="none" stroke="#4b4b4d" stroke-width="5.117" d="M2510 4409v-292h208v14h-168v98h119v15h-119v165h-40z"></path>
        <path fill="none" stroke="#4b4b4d" stroke-width="5.117" d="M2738 4409v-292h208v14h-168v98h119v15h-119v151h168v14h-208z"></path>
        <path d="M3081 4117h103c25 0 46 4 64 12 18 9 33 20 45 33 12 14 21 30 27 47s9 35 9 54c0 18-3 36-9 53-6 18-15 33-27 47s-28 25-46 33c-18 9-39 13-63 13h-103v-292zm41 14v264h61c17 0 33-4 46-12 13-7 24-17 32-30 9-12 15-26 20-42 4-15 6-32 6-48 0-17-2-33-6-48-5-16-11-30-20-43-8-12-19-22-32-29-13-8-29-12-46-12h-61z" fill="none" stroke="#4b4b4d" stroke-width="5.117"></path>
        <path d="M3522 4110c26 0 50 4 69 13 20 9 36 20 50 34 13 15 22 31 29 49 7 19 10 38 10 57s-3 38-10 56-16 35-29 49c-14 14-30 26-50 35-19 8-43 13-69 13s-50-5-69-13c-20-9-37-21-50-35s-23-31-30-49c-6-18-9-37-9-56s3-38 9-57c7-18 17-34 30-49 13-14 30-25 50-34 19-9 43-13 69-13zm0 12c-19 0-36 4-51 12s-27 19-37 32c-9 13-17 28-21 45-5 17-8 34-8 52 0 17 3 34 8 51 4 17 12 32 21 46 10 13 22 24 37 32s32 12 51 12c20 0 36-4 51-12 14-8 27-19 36-32 10-14 17-29 22-46s7-34 7-51c0-18-2-35-7-52s-12-32-22-45c-9-13-22-24-36-32-15-8-31-12-51-12z" fill="none" stroke="#4b4b4d" stroke-width="5.117"></path>
        <path d="M3723 4304v-187h40v196c0 14 2 26 7 37 5 10 11 19 20 27 8 7 18 13 29 16 11 4 24 6 37 6 11 0 21-3 30-7 10-3 19-9 26-16 8-7 14-16 18-27 5-11 7-23 7-36v-196h14v187c0 17-3 32-8 46-6 14-14 26-24 36s-23 18-37 23-29 8-46 8c-14 0-28-2-42-7-13-5-26-12-36-22-11-9-20-21-26-35s-9-31-9-49z" fill="none" stroke="#4b4b4d" stroke-width="5.117"></path>
        <path fill="none" stroke="#4b4b4d" stroke-width="5.117" d="M4000 4117h40v278h168v14h-208v-292z"></path>
        <path d="m4196 4409 106-262-12-30h41l118 292h-40l-34-83h-129l-34 83h-16zm55-97h119l-60-146-59 146z" fill="none" stroke="#4b4b4d" stroke-width="5.117"></path>
        <path d="m4553 4409 106-262-12-30h40l118 292h-40l-33-83h-130l-33 83h-16zm55-97h118l-59-146-59 146z" fill="none" stroke="#4b4b4d" stroke-width="5.117"></path>
        <path fill="none" stroke="#4b4b4d" stroke-width="5.117" d="M4825 4117h40v278h168v14h-208v-292z"></path>
        <path fill="none" stroke="#4b4b4d" stroke-width="5.117" d="M5053 4117h40v278h168v14h-208v-292z"></path>
        <path fill="none" stroke="#4b4b4d" stroke-width="5.117" d="M5280 4117h40v292h-40v-292z"></path>
        <path d="m5340 4409 106-262-12-30h41l118 292h-40l-34-83h-130l-33 83h-16zm55-97h118l-59-146-59 146z" fill="none" stroke="#4b4b4d" stroke-width="5.117"></path>
        <path fill="none" stroke="#4b4b4d" stroke-width="5.117" d="m5643 4117 176 236v-236h14v292h-14v-1l-179-240v241h-14v-261l-23-31h40z"></path>
        <path d="m6143 4182-12 4c-11-22-26-39-43-49-18-11-36-16-55-16-20 0-37 4-52 12-14 8-27 19-37 32-9 14-17 29-22 46-4 17-7 34-7 52s3 35 7 52c5 17 13 32 22 46 10 13 23 23 37 32 15 8 32 12 52 12 19 0 38-5 55-16 17-10 32-27 43-50l12 5c-6 13-13 24-21 33s-18 17-28 23-20 11-32 13c-11 3-23 4-34 4-26 0-48-4-67-13-20-9-36-21-48-35-13-15-22-31-29-50-6-19-9-38-9-57s3-38 10-57c6-18 16-35 29-49 13-15 29-26 48-35s41-13 67-13c12 0 23 1 34 5 12 3 22 7 32 13s19 14 27 23 15 20 21 33z" fill="none" stroke="#4b4b4d" stroke-width="5.117"></path>
        <path fill="none" stroke="#4b4b4d" stroke-width="5.117" d="M6176 4409v-292h208v14h-168v98h119v15h-119v151h168v14h-208z"></path>
        <path d="m6488 4409 106-262-12-30h40l118 292h-40l-33-83h-130l-34 83h-15zm55-97h118l-59-146-59 146z" fill="none" stroke="#4b4b4d" stroke-width="5.117"></path>
        <path d="M6899 4110c26 0 49 4 69 13s36 20 49 34c13 15 23 31 30 49 7 19 10 38 10 57s-3 38-10 56-17 35-30 49-29 26-49 35c-20 8-43 13-69 13-27 0-50-5-70-13-20-9-36-21-49-35-14-14-23-31-30-49s-10-37-10-56 3-38 10-57c7-18 16-34 30-49 13-14 29-25 49-34s43-13 70-13zm0 12c-20 0-37 4-51 12-15 8-27 19-37 32s-17 28-22 45-7 34-7 52c0 17 2 34 7 51s12 32 22 46c10 13 22 24 37 32 14 8 31 12 51 12 19 0 36-4 51-12 14-8 26-19 36-32 10-14 17-29 22-46s7-34 7-51c0-18-2-35-7-52s-12-32-22-45-22-24-36-32c-15-8-32-12-51-12z" fill="none" stroke="#4b4b4d" stroke-width="5.117"></path>
        <path fill="none" stroke="#4b4b4d" stroke-width="5.117" d="M7055 4131v-14h257v14h-108v278h-40v-278h-109z"></path>
        <path fill="none" stroke="#4b4b4d" stroke-width="5.117" d="M7336 4409v-292h209v14h-168v98h119v15h-119v151h168v14h-209z"></path>
        <path d="m7533 4409 106-262-12-30h40l118 292h-40l-33-83h-130l-34 83h-15zm55-97h118l-59-146-59 146z" fill="none" stroke="#4b4b4d" stroke-width="5.117"></path>
        <path d="M7939 4117c20 0 38 3 52 10 15 7 26 16 34 27s14 23 16 36 1 26-3 39c-5 12-12 23-22 33s-24 18-40 22l58 125h-16l-56-121c-4 0-8 1-12 1h-104v120h-41v-292h134zm-2 158c15 0 27-3 36-10 10-8 17-16 22-27 4-11 7-22 7-35 0-12-3-24-7-34-5-11-12-20-22-27-9-7-21-11-36-11h-91v144h91z" fill="none" stroke="#4b4b4d" stroke-width="5.117"></path>
        <path d="M8220 4110c27 0 50 4 69 13 20 9 36 20 50 34 13 15 23 31 29 49 7 19 10 38 10 57s-3 38-10 56c-6 18-16 35-29 49-14 14-30 26-50 35-19 8-42 13-69 13-26 0-49-5-69-13-20-9-37-21-50-35s-23-31-30-49c-6-18-9-37-9-56s3-38 9-57c7-18 17-34 30-49 13-14 30-25 50-34s43-13 69-13zm0 12c-19 0-36 4-51 12s-27 19-37 32c-9 13-17 28-21 45-5 17-8 34-8 52 0 17 3 34 8 51 4 17 12 32 21 46 10 13 22 24 37 32s32 12 51 12c20 0 37-4 51-12s27-19 36-32c10-14 17-29 22-46s7-34 7-51c0-18-2-35-7-52s-12-32-22-45c-9-13-22-24-36-32s-31-12-51-12z" fill="none" stroke="#4b4b4d" stroke-width="5.117"></path>
        <path d="m8377 4409 106-262-12-30h40l119 292h-41l-33-83h-130l-33 83h-16zm55-97h118l-59-146-59 146z" fill="none" stroke="#4b4b4d" stroke-width="5.117"></path>
        <path d="M581 3762h1505l64-300h-38c-46 157-115 259-176 259h-900v-899h511c63 0 170 43 167 228h38v-495h-38c3 183-104 226-167 226h-511v-752l772-2c61 0 130 102 175 259h39l-64-300H581v41c130 0 214 63 214 147v1400c0 83-84 147-214 147v41z" fill="#0c6b80" fill-rule="nonzero"></path>
        <path d="M2145 3762h1348l64-299h-36c-45 157-116 259-177 259h-770V2175c0-89 58-147 185-147v-41h-614v41c127 0 188 58 188 147v1399c0 84-59 148-188 148v40z" fill="#0c6b80" fill-rule="nonzero"></path>
        <path d="M4850 2856c0 530-269 866-673 866h-193V2030h193c404 0 673 330 673 826zm-663 906c543 0 901-363 901-906 0-501-355-869-894-869h-665v41c130 0 213 63 213 147v1399c0 84-83 148-213 148v40h658z" fill="#0c6b80" fill-rule="nonzero"></path>
        <path d="M6388 3574c-254-558-469-1026-724-1587h-68l-617 1587c-35 90-100 148-229 148v40h419v-40c-124 0-182-59-147-148l61-155c72-184 596-412 762-442l276 597c41 88 6 148-121 148v40h642v-40c-129 0-213-59-254-148zm-1265-259 407-1041 279 612c-290 117-564 305-686 429z" fill="#0c6b80" fill-rule="nonzero"></path>
        <path d="M5686 2954c527-281 1066-119 1619 47 435 109 830 209 1122 59 49-19 70 24 35 42-309 167-719 64-1170-50-506-128-1098-242-1617-21l11-77z" fill="#0c6b80" fill-rule="nonzero"></path>
        <path d="M8273 3574c-246-542-475-1040-724-1587h-68l-617 1587c-36 89-99 148-229 148v40h419v-40c-124 0-180-59-147-148 169-430 338-866 508-1300 196 434 393 866 592 1300 38 89 5 148-122 148v40h642v-40c-129 0-213-59-254-148z" fill="#0c6b80" fill-rule="nonzero"></path>
        <path fill="none" d="M12694 0v5126H0V0h12694z"></path>
        <path d="M10053 3119c0-28 36-109 54-132 7-10 43-12 57-15 83-21 205-61 268-111 46-36 52-42 74-100 48-122 55-279 25-405-16 1-80 42-100 52-93 48-213 101-312 131-270 81-461 88-737 65-147-12-345-36-476 68-65 52-121 127-134 212l89 224c35 69 118 141 190 167 128 47 261-4 354-97 52-52 48-64 76-101 89 72 296 238 399 269-4-19-31-39-24-84 13-84 116-131 197-143zm-1092-262c5-1 9-3 13-5 20-8 41-16 86-17 53-2 86 17 118 36l6 4c-2-16-16-29-35-39-15-7-33-13-52-16s-39-3-58-1c-35 3-66 15-78 38z" fill="#000101"></path>
        <path d="M9047 3297c1 31 107 94 134 111 49 33 101 66 154 94 107 59 287 97 408 116 144 22 220 23 357-21 96-30 213-94 257-191-26-1-81 11-113 13-233 13-394-55-583-186-31-21-61-44-90-67-27-20-60-49-87-66-47 70-94 134-178 168-60 25-116 42-184 40-27-1-49-8-75-11z" fill="#000101"></path>
        <path d="M10573 2655c16 3 718-249 793-279 122-48 461-184 568-255 60-39 133-105 84-183-79-126-307 2-399 52-61 32-120 69-178 105s-121 69-179 103c-96 55-262 155-354 214l-264 162c-42 22-73 39-71 81zm59-32c37-13 204-85 280-111 182-64 414-148 452-163 65-25 198-79 311-130 72-32 209-98 244-121 23-15 49-36 64-59 13-20 16-44 1-69-55-87-299 39-377 82l-9 5c-26 13-51 28-76 43-24 14-50 30-75 46-31 19-66 38-100 57-18 11-37 21-53 31-44 25-105 61-164 97-51 30-100 61-137 85l-327 186-1 1c-13 7-25 13-33 20z" fill="#000101"></path>
        <path d="M10502 857c-9-13-18-25-29-36-28-30-50-51-91-60-78 6-88 113-93 177-12 159 10 875 17 1065 1 30 9 407 14 425l73-31c9-29 12-146 15-185 5-62 10-125 16-187 10-127 33-258 49-384 22-166 57-403 60-569 1-30 0-57-1-87-2-39-5-96-30-128zm-8 120c-2-4-4-7-5-11-2-6-4-12-10-20l-3-5c-7-9-13-17-20-25-11-12-21-23-31-30s-20-12-32-15c-22 3-36 22-44 46-11 30-15 67-17 94-4 54-5 181-5 327 1 237 6 520 8 624 0 7 1 28 1 58 1 83 5 317 7 377l27-12c4-23 4-158 7-197 1-16 2-31 3-41l7-84 8-84c7-80 20-161 32-242 5-34 10-67 15-104l7-50c20-143 46-326 50-457 1-13 1-26 1-38s0-25-1-39c0-6-1-16-2-27-2-16-3-33-3-45z" fill="#000101"></path>
        <path d="M10746 2123c127-186 245-370 375-555 68-97 317-474 383-542 32-33 141-135 164-40 27 114-147 302-218 385-93 109-179 224-270 334-92 110-178 226-270 335-46 54-277 345-307 376-5-8 3-52-9-74l152-219zm-182 181c7-23 200-401 215-430 74-146 449-912 507-995 24-33 121-138 151-62 50 123-189 463-272 589-38 58-73 119-112 177-77 117-155 234-231 352-74 116-163 269-243 381l-15-12zm1097-1414c-71-8-140 40-182 92l-125 184c14-30 46-77 65-110 21-38 44-79 60-120 14-35 23-102 24-140 1-47-3-91-56-99-1 1-35 8-46 14-107 53-182 186-237 287-74 138-146 283-213 425-30 63-383 813-409 889 15 13 20 11 27 32 16 49 13 85 10 135 17-14 131-158 160-190 54-62 105-129 160-191 108-122 211-257 316-383 105-128 208-257 316-383 79-91 192-224 194-350 1-43-15-90-64-92z" fill="#000101"></path>
        <path d="M10640 736c-22 64-29 116-42 181-4 52-20 125-27 183-8 61-18 123-26 185-20 155-137 1061-129 1089 64-35 41-8 72-144 32-136 53-220 94-358 46-156 93-313 137-470 39-138 105-327 100-467-3-72-45-221-109-247-39-17-55 22-70 48z" fill="#000101"></path>
        <path d="M10484 2340c34 0 47-44 58-70l132-293c59-130 120-256 176-388s113-267 167-401c31-78 59-129 70-216 16-117-24-369-131-242-40 47-65 142-83 202-70 227-135 466-198 696l-129 473c-11 42-62 211-62 239zm23-39c11-9 19-29 25-45l4-10 137-333c16-37 31-72 46-106 33-77 66-154 98-233 23-59 47-117 70-175 23-59 46-118 68-175 6-14 11-26 15-38 20-49 36-89 47-149 9-52 11-134-1-184-3-14-8-26-14-33-4-6-9-8-16-6-8 3-18 12-30 29-25 36-46 103-61 154l-7 20c-31 99-61 200-91 301-30 102-59 203-88 303l-117 409c-3 9-7 24-13 43-15 49-65 198-72 228z" fill="#000101"></path>
        <path d="M10536 2769c33 19 164-18 205-28 64-16 130-29 194-45 128-33 257-62 385-96s253-69 379-106c520-152 279-260 83-233-124 17-416 140-555 182-191 59-440 158-638 232-32 11-21 8-33 40-4 14-18 42-20 54z" fill="#000101"></path>
        <path d="M10584 2537c22-7 410-361 477-424 53-49 100-104 154-151 143-128 346-296 478-424 38-37 149-133 95-189-47-50-169-25-225 1-75 35-104 88-155 150-232 287-475 572-710 857-23 29-49 57-71 86-23 29-61 56-43 94zm26-40c22-18 62-54 109-96 108-97 338-316 374-350 20-19 39-39 58-58 25-26 51-52 77-76 44-39 94-83 145-128 96-84 198-172 273-245l9-9c35-34 107-103 76-138-14-15-38-21-66-20-39 0-84 13-110 25-49 24-75 58-106 98-7 9-15 20-25 31-117 145-239 290-361 436-89 106-264 299-352 406-10 12-18 21-25 30-14 15-27 31-38 45-5 6-10 11-14 16-10 11-19 21-24 33z" fill="#000101"></path>
        <path d="M10583 2590c26-11 144-95 178-113l178-114c116-78 239-149 356-226 119-77 239-151 354-232 59-40 115-81 171-126 39-32 156-118 111-174-40-51-174-30-228-10-120 44-396 318-496 408-189 172-368 336-563 502-40 34-69 49-61 85z" fill="#000101"></path>
        <path d="M10272 1619c-2-136-8-272-11-407-1-66 2-130-32-189-22-38-83-138-138-110-37 19-25 58-22 92 33 356 75 717 113 1073 7 65 15 129 22 194 7 59 20 138 21 195 14-3 54-23 68-30 5-20-20-773-21-818z" fill="#000101"></path>
        <path d="M10508 3044c28 8 63 1 91-4 22-4 21-9 32-28 33-61 74-184 73-250-31 6-55 14-86 17-19 3-84 4-93 10-16 10-31 91-175 152-109 46-141 37-224 61-18 36-38 70-42 110 47 26 181-43 228-63 105-45 58-26 116-30 43-2 78-42 106-44 4 24-12 50-26 69z" fill="#000101"></path>
        <path d="M9875 3310c-5 74 266 104 323 103 55-1 104-14 157-17 52-4 111-1 164-1 107 0 219-1 325-11 53-5 265-30 299-57-26-6-60-8-87-12-28-4-45 6-72 12-49 9-96 15-146 19-240 22-559 13-799-22-30-4-144-27-164-14z" fill="#000101"></path>
        <path d="m9369 4240-1-4c-19 0-19 3-39-6-22-32 11-101 31-130 28-41 59-45 106-46-2-13-15-27-29-33-20-9-26-4-45-1-12-28-2-38 18-58 70-68 301-235 315-255-40-119-24-79-142-112 15 33 76 33 87 89 11 51-39 68-71 93-62 47-128 92-192 140-66 49-145 99-168 185-48 180 104 177 130 138z" fill="#000101"></path>
        <path d="M10043 4159c55 19 97 28 138-16-8-18-16-21-20-46-5-35-1-80 7-115 7-28 12-26 33-38-11-18-17-18-24-42-12-46 35-123 57-162 26-47 98-159 37-200-17 10-34 20-45 38 9 31 25 34 13 77-13 46-91 179-116 219-18 27-80 107-86 131-9 29-3 125 6 154z" fill="#000101"></path>
        <path d="M9874 3273c29 52 544 75 625 75 100 0 493-9 555-67-31-7-78-6-122-18-23-6-14-6-35 2-36 15-92 22-131 26-192 22-545 21-739-6-28-4-54-9-81-14-19-4-60-18-72 2z" fill="#0c6b80"></path>
        <path d="M9905 3211c13 34 219 45 261 47 162 8 557 3 697-71-18-5-46-8-66-11-33-6-30-13-63-5-37 8-73 16-109 24-165 39-425 51-595 25-28-5-111-32-125-9z" fill="#0c6b80"></path>
        <path d="M9890 3237c4 24 44 24 64 28 145 27 346 31 490 29 68-2 477-18 501-69-24-8-49-8-74-13-24-5-37 2-61 8-37 10-80 19-118 26-154 26-564 34-729-2-21-4-55-21-73-7z" fill="#000101"></path>
        <path d="M10079 3195c-27-2-127-26-141-6 25 23 188 33 229 35 143 5 497-19 600-76-99-23-71-17-141 3-104 29-152 37-260 45-98 7-189 8-287-1z" fill="#010202"></path>
        <path d="M10075 3168c6-1 125 7 142 8 77 9 427-40 455-114-24 6-65 8-81 14-19 6-34 16-74 28-131 39-198 46-333 48-30 1-61 1-91-1-20-1-76-10-89-5 7 19 52 18 71 22z" fill="#010202"></path>
        <path d="M10030 3137c128 31 499 0 588-90l-116 8c-22 1-15 5-31 15-64 42-208 54-285 58-30 1-138-6-156 9z" fill="#0c6b80"></path>
        <path d="M10177 3121c42 1 146-16 190-24 70-12 115-31 146-99-30 9-52 33-88 30-29-2-20-5-48 5-38 15-185 72-200 88z" fill="#000101"></path>
        <path d="M9994 3163c-14-1-15-2-22 6 86 40 416 23 511 5 51-9 190-37 224-70-94-11-67 1-123 20-220 73-370 65-590 39z" fill="#0c6b80"></path>
        <path d="m9368 4236 1 4c8-3 4 1 10-9-8 0-2-4-11 5z" fill="#6f7070"></path>
        <path d="m8624 3061 211 37s0-12-7-28c-8-17-12-41-12-41l-150 14-50 4c-3 4 4 13 8 14z" fill="#201e1e"></path>
        <path d="M8809 3014c5-4-16-41-18-54-3-12-31-58-31-58s-2-11-43 22-145 106-145 106c-7 28 236-16 237-16z" fill="#201e1e"></path>
        <path d="M10256 1627c-2-59-4-120-6-181-2-60-4-120-5-183l-1-18c-1-52-1-102-25-147-9-16-25-46-44-68-18-21-38-35-56-23-21 13-18 38-15 62 1 5 1 9 2 14 21 238 46 479 70 718l24 237 9 87 10 87c2 26 7 72 11 117 4 40 7 81 8 107l12-6c11-6 22-13 29-17 2-37-12-440-19-654-3-71-4-121-4-132z" fill="#0c6b80"></path>
        <path d="M10667 834c-14 44-21 82-28 124-2 11-5 22-7 36-3 26-9 58-14 91-5 24-9 49-12 71-4 27-8 57-13 87-4 25-7 50-11 77-13 88-64 452-98 703-14 106-41 274-45 315 4-3 7-6 8-9 2-5 4-15 8-32 2-15 6-35 13-65 14-61 41-191 53-241 12-49 25-99 42-161l21-76c32-115 63-230 93-345 6-21 12-44 19-67 31-112 67-245 68-345 0-34-8-90-23-135-10-32-24-59-40-66-13-6-23 16-32 34l-2 4z" fill="#0c6b80"></path>
        <path d="M10667 2511c14-9 31-20 48-31 27-19 55-37 67-44l271-186c52-35 106-69 160-102 43-27 87-54 129-82 30-19 60-38 91-58 66-42 131-84 195-129 24-16 47-33 70-49 23-17 46-35 68-53l8-6c33-26 105-84 80-116-11-13-34-19-60-20-40-2-86 7-110 17-77 28-242 182-342 276-22 20-40 37-55 51l-52 48c-135 122-392 334-532 453-6 5-11 9-16 13-8 7-15 13-20 18z" fill="#0c6b80"></path>
        <path d="M10565 2760c35 0 167-37 202-46l12-3c27-7 57-14 86-20 29-7 58-13 89-21 45-12 96-24 146-36 67-16 134-33 201-50 58-16 115-31 171-47 58-16 115-32 171-49 152-44 259-90 288-122 8-9 11-16 9-21-2-6-8-12-19-17-36-19-103-26-166-18-70 10-235 66-355 111-66 24-127 46-172 60-128 39-286 99-432 155-48 18-154 54-203 72-11 4-11 5-12 6-1 4-2 10-5 19-2 5-4 11-7 17l-4 10z" fill="#0c6b80"></path>
    </g>
</svg>
